<?xml version="1.0" standalone="no"?>
<!DOCTYPE svg PUBLIC "-//W3C//DTD SVG 20010904//EN"
 "http://www.w3.org/TR/2001/REC-SVG-20010904/DTD/svg10.dtd">
<svg version="1.0" xmlns="http://www.w3.org/2000/svg"
 width="225.000000pt" height="225.000000pt" viewBox="0 0 225.000000 225.000000"
 preserveAspectRatio="xMidYMid meet">

<g transform="translate(0.000000,225.000000) scale(0.100000,-0.100000)"
fill="#000000" stroke="none">
<path d="M755 1721 c-47 -22 -79 -55 -92 -96 l-10 -30 -99 -5 -99 -5 0 -465 0
-465 560 0 560 0 3 47 c2 36 8 48 22 53 31 10 70 64 70 96 0 22 5 29 19 29 51
0 51 -1 51 207 l0 195 30 28 c37 35 39 72 5 105 -48 49 -119 19 -119 -50 0
-29 6 -42 27 -57 l27 -20 0 -184 c0 -177 -1 -184 -20 -184 -16 0 -20 7 -20 33
0 39 -21 72 -60 92 l-30 15 -2 263 -3 262 -101 3 -102 3 -6 30 c-8 41 -63 94
-111 108 -23 6 -128 11 -250 11 -183 0 -215 -3 -250 -19z m522 -41 c35 -21 53
-49 63 -95 l6 -30 97 -3 97 -3 -2 -432 -3 -432 -522 -3 -523 -2 0 435 0 434
97 3 97 3 6 30 c10 46 28 74 63 95 29 18 52 20 262 20 210 0 233 -2 262 -20z
m478 -315 c0 -27 -3 -30 -30 -30 -21 0 -31 5 -33 18 -6 33 6 49 35 45 24 -3
28 -8 28 -33z m-122 -406 c18 -69 -8 -169 -45 -169 -4 0 -8 52 -8 116 l0 116
22 -14 c12 -8 26 -30 31 -49z"/>
<path d="M562 1438 c-17 -17 -17 -369 0 -386 9 -9 123 -12 453 -12 426 0 443
1 460 20 15 17 17 37 13 195 -3 142 -6 178 -18 185 -24 15 -893 13 -908 -2z
m283 -193 l0 -170 -110 -3 c-170 -4 -155 -21 -155 172 0 89 3 166 7 170 4 3
63 5 132 4 l126 -3 0 -170z m305 0 l0 -176 -132 3 -133 3 -3 173 -2 172 135 0
135 0 0 -175z m298 3 l-3 -173 -127 -3 -128 -3 0 176 0 175 130 0 130 0 -2
-172z"/>
<path d="M650 1325 c0 -11 12 -15 45 -15 25 0 45 -1 45 -2 0 -2 -14 -30 -30
-62 -34 -67 -40 -119 -13 -114 11 2 20 21 28 55 7 29 24 71 39 93 15 22 24 45
21 50 -3 6 -35 10 -71 10 -50 0 -64 -3 -64 -15z"/>
<path d="M950 1325 c0 -11 12 -15 45 -15 25 0 45 -2 45 -3 0 -2 -13 -28 -30
-58 -32 -58 -40 -119 -16 -119 15 0 20 10 31 66 3 18 19 53 36 79 16 25 27 51
24 56 -4 5 -35 9 -71 9 -50 0 -64 -3 -64 -15z"/>
<path d="M1257 1334 c-14 -14 6 -24 49 -24 24 0 44 -2 44 -3 0 -2 -13 -28 -30
-58 -32 -59 -40 -119 -15 -119 8 0 17 12 21 28 13 58 26 92 50 127 13 20 22
41 19 46 -7 10 -128 13 -138 3z"/>
<path d="M582 943 l3 -58 60 0 60 0 0 55 0 55 -63 3 -63 3 3 -58z m88 2 c0
-14 -4 -25 -9 -25 -5 0 -16 -3 -25 -6 -13 -5 -16 1 -16 25 0 26 4 31 25 31 20
0 25 -5 25 -25z"/>
<path d="M1014 986 c-3 -7 -4 -33 -2 -57 l3 -44 235 0 235 0 0 55 0 55 -233 3
c-192 2 -233 0 -238 -12z m436 -43 l0 -28 -179 -2 c-206 -2 -221 0 -221 33 l0
24 200 0 200 0 0 -27z"/>
<path d="M587 834 c-4 -4 -7 -32 -7 -61 l0 -54 63 3 62 3 0 55 0 55 -55 3
c-31 2 -59 0 -63 -4z m83 -54 c0 -25 -4 -30 -25 -30 -21 0 -25 5 -25 30 0 25
4 30 25 30 21 0 25 -5 25 -30z"/>
<path d="M1014 826 c-3 -7 -4 -33 -2 -57 l3 -44 235 0 235 0 0 55 0 55 -233 3
c-192 2 -233 0 -238 -12z m436 -40 c0 -27 -13 -35 -50 -30 -14 1 -98 3 -187 3
l-163 1 0 25 0 25 200 0 200 0 0 -24z"/>
</g>
</svg>
